<svg enable-background="new 0 0 453.543 453.543" viewBox="0 0 453.543 453.543" xmlns="http://www.w3.org/2000/svg"><g id="Capa_1"/><g id="Capa_2"><g><g><g><g><g><path d="m256.55 70.741c-4.979-1.246-9.383-4.14-12.402-8.291-5.116-7.035-10.256-12.448-6.999-22.285 3.645-11.009 11.058-10.813 16.406-8.894 3.017 1.083 6.212-1.019 6.212-4.225v-.156c0-1.864-1.132-3.591-2.879-4.239-32.898-12.198-48.663 11.301-52.339 33.649-1.26 7.662-6.88 13.981-14.27 16.365-22.733 7.334-38.099 21.3-38.099 37.339 0 23.654 33.395 42.829 74.591 42.829 41.195 0 74.591-19.175 74.591-42.829 0-17.574-18.441-32.662-44.812-39.263z" fill="#492234"/></g><g><g><g><ellipse cx="86.32" cy="254.733" fill="#d35b0f" rx="85.245" ry="147.256"/></g><g><ellipse cx="141.526" cy="254.733" fill="#e46510" rx="85.245" ry="170.356"/></g><g><ellipse cx="367.223" cy="254.733" fill="#d35b0f" rx="85.245" ry="147.256"/></g><g><ellipse cx="312.017" cy="254.733" fill="#e46510" rx="85.245" ry="170.356"/></g></g><g><ellipse cx="226.772" cy="253.771" fill="#eb7424" rx="105.817" ry="180.461"/></g></g></g><g><path d="m219.461 215.165-20.671 43.017c-2.911 6.058 4.161 12.012 9.635 8.111l13.008-9.271c2.162-1.541 5.043-1.613 7.279-.181l16.674 10.674c5.642 3.612 12.399-2.637 9.239-8.543l-23.57-44.059c-2.511-4.692-9.289-4.545-11.594.252z" fill="#492234"/></g><g><g><path d="m115.688 166.802-42.537 43.017c-5.991 6.058 8.562 12.012 19.826 8.111l26.768-9.27c4.449-1.541 10.379-1.613 14.98-.181l34.313 10.674c11.61 3.612 25.515-2.637 19.012-8.543l-48.503-44.059c-5.167-4.693-19.115-4.547-23.859.251z" fill="#492234"/></g><g><path d="m337.855 166.802 42.537 43.017c5.991 6.058-8.562 12.012-19.826 8.111l-26.768-9.27c-4.449-1.541-10.379-1.613-14.98-.181l-34.313 10.674c-11.61 3.612-25.515-2.637-19.012-8.543l48.503-44.059c5.167-4.693 19.115-4.547 23.859.251z" fill="#492234"/></g></g><g><path d="m297.61 293.156h-23.825v12.512c0 5.955-4.872 10.827-10.828 10.827h-8.849c-5.955 0-10.828-4.873-10.828-10.827v-12.512h-33.018v12.512c0 5.955-4.873 10.827-10.828 10.827h-8.849c-5.955 0-10.827-4.873-10.827-10.827v-12.512h-23.855c-10.904 0-18.555 10.688-15.08 21.023 7.972 23.715 27.155 59.74 70.837 65.543-.06-.459-.141-.913-.141-1.388v-17.324c0-5.955 4.873-10.828 10.828-10.828h8.849c5.955 0 10.828 4.873 10.828 10.828v17.324c0 .194-.047.376-.058.569 43.1-7.625 62.462-41.685 70.662-64.545 3.708-10.338-4.036-21.202-15.018-21.202z" fill="#492234"/></g></g><g><path d="m375.178 120.635c7.275 2.186 13.84 6.415 19.724 11.259l2.224 1.825 2.039 2.02 4.067 4.076c1.248 1.451 2.423 2.969 3.63 4.462l1.801 2.25c.625.734 1.191 1.509 1.684 2.332l3.125 4.836c1.008 1.633 2.152 3.198 2.933 4.952 1.686 3.44 3.489 6.841 5.079 10.33l4.008 10.775c.74 1.777 1.142 3.65 1.649 5.493l1.472 5.545 1.42 5.558c.406 1.865.639 3.762.967 5.642l1.813 11.3c.452 3.782.572 7.594.872 11.387.212 3.797.633 7.588.581 11.387-.179 7.596-.158 15.193-.692 22.747-.865 7.539-1.573 15.073-2.574 22.557-.033-7.581.227-15.112.329-22.637.1-1.879.011-3.761-.07-5.64l-.218-5.636-.348-11.255c.012-1.878-.291-3.737-.463-5.601l-.546-5.591c-.403-3.72-.625-7.464-1.174-11.158l-1.91-11.04c-.337-1.834-.581-3.69-.994-5.506l-1.432-5.399c-3.354-14.505-8.885-28.506-16.786-41.068-.44-.823-.95-1.595-1.519-2.327l-1.635-2.249-3.274-4.509-3.671-4.189-1.85-2.092-2.026-1.915c-5.254-5.28-11.362-9.78-18.235-12.921z" fill="#fff"/></g><g><path d="m312.017 99.46c3.896-.849 8.057-.409 11.948.695 1.007.208 1.934.618 2.887.977.936.391 1.937.68 2.831 1.165l2.698 1.444c.922.458 1.773 1.017 2.592 1.623 6.742 4.604 12.339 10.775 16.609 17.598 1.193 1.642 2.06 3.458 3.03 5.217.928 1.78 1.961 3.511 2.8 5.329l2.295 5.542c.75 1.85 1.587 3.668 2.102 5.598 1.149 3.814 2.413 7.587 3.275 11.458.777 3.898 1.563 7.779 2.141 11.688-1.565-3.66-2.923-7.349-4.29-11.021-.6-1.864-1.477-3.627-2.223-5.431l-2.237-5.402c-1.529-3.577-3.325-7.015-4.957-10.52-.895-1.709-1.878-3.365-2.81-5.049-.957-1.668-1.824-3.398-2.975-4.928l-3.176-4.785-3.588-4.445c-2.444-2.907-5.152-5.589-8.095-7.971-1.387-1.33-3.087-2.168-4.616-3.318-.775-.561-1.65-.925-2.476-1.402-.839-.449-1.67-.936-2.564-1.259-3.474-1.606-7.249-2.636-11.201-2.803z" fill="#fff"/></g><g><path d="m221.184 86.072c9.027-1.649 18.543-.097 27.205 3.235 8.736 3.332 16.537 8.83 23.194 15.324l4.772 5.101c1.424 1.832 2.82 3.687 4.197 5.552l2.048 2.808 1.757 2.99c1.178 1.987 2.32 3.993 3.443 6.003 2.059 4.115 3.768 8.397 5.547 12.602 1.357 4.385 2.719 8.748 3.871 13.145-2.116-4.067-4.023-8.167-5.933-12.246l-3.299-5.895c-1.139-1.935-2.064-3.985-3.299-5.851-1.258-1.851-2.497-3.706-3.701-5.581l-1.823-2.797-2.092-2.592-4.112-5.223-4.601-4.767c-6.248-6.206-13.4-11.495-21.371-15.3-7.976-3.745-16.693-6.246-25.803-6.508z" fill="#fff"/></g></g><g><path d="m132.532 172.275c4.469 2.544 8.645 5.432 12.719 8.442 4.092 2.988 8.011 6.181 11.896 9.413 3.83 3.297 7.623 6.639 11.243 10.184 3.639 3.523 7.173 7.171 10.412 11.165-4.472-2.539-8.65-5.426-12.723-8.437-4.091-2.989-8.01-6.182-11.892-9.418-3.826-3.302-7.619-6.643-11.239-10.189-3.638-3.524-7.173-7.17-10.416-11.16z" fill="#fff"/></g><g><path d="m332.589 172.275c4.038 2.585 7.762 5.496 11.375 8.521 3.612 3.026 7.115 6.165 10.491 9.435 3.387 3.258 6.64 6.656 9.788 10.162 3.146 3.508 6.178 7.134 8.894 11.086-4.042-2.581-7.767-5.49-11.379-8.516-3.61-3.028-7.116-6.164-10.486-9.44-3.382-3.264-6.637-6.659-9.783-10.167-3.146-3.509-6.18-7.132-8.9-11.081z" fill="#fff"/></g></g></g></svg>