<svg id="_01-Letter" height="512" viewBox="0 0 64 64" width="512" xmlns="http://www.w3.org/2000/svg" xmlns:xlink="http://www.w3.org/1999/xlink" data-name="01-Letter"><linearGradient id="linear-gradient" gradientUnits="userSpaceOnUse" x1="32" x2="32" y1="16.412" y2="32.664"><stop offset="0" stop-color="#ff5f6f"/><stop offset=".346" stop-color="#ff2d44"/><stop offset=".722" stop-color="#d41e32"/><stop offset=".853" stop-color="#d61f33"/><stop offset=".918" stop-color="#de2337"/><stop offset=".968" stop-color="#eb293e"/><stop offset="1" stop-color="#f82f44"/></linearGradient><linearGradient id="linear-gradient-2" gradientUnits="userSpaceOnUse" x1="31.889" x2="32.001" y1="15.886" y2="22.411"><stop offset="0" stop-color="#ff8a95"/><stop offset=".66" stop-color="#ff495d"/><stop offset="1" stop-color="#ff2d44"/></linearGradient><linearGradient id="linear-gradient-3" gradientUnits="userSpaceOnUse" x1="37.396" x2="37.546" y1="18.908" y2="24.57"><stop offset="0" stop-color="#ff5f5f"/><stop offset=".283" stop-color="#ff565a"/><stop offset=".746" stop-color="#ff3d4d"/><stop offset="1" stop-color="#ff2d44"/></linearGradient><linearGradient id="linear-gradient-4" x1="29.954" x2="30.367" xlink:href="#linear-gradient-3" y1="18.998" y2="22.598"/><linearGradient id="linear-gradient-5" gradientUnits="userSpaceOnUse" x1="55.643" x2="60.218" y1="24.261" y2="29.961"><stop offset=".005" stop-color="#ff5c5c"/><stop offset="1" stop-color="#bf0a1d"/></linearGradient><linearGradient id="linear-gradient-6" x1="32.213" x2="31.988" xlink:href="#linear-gradient-5" y1="1.424" y2="10.499"/><linearGradient id="linear-gradient-7" x1="8.353" x2="3.928" xlink:href="#linear-gradient-5" y1="25.228" y2="29.653"/><linearGradient id="linear-gradient-8" x1="-1.504" x2="12.596" xlink:href="#linear-gradient-5" y1="40.605" y2="54.405"/><linearGradient id="linear-gradient-9" x1="32" x2="32" xlink:href="#linear-gradient-5" y1="38.912" y2="62.109"/><linearGradient id="linear-gradient-10" x1="67.452" x2="52.602" xlink:href="#linear-gradient-5" y1="39.762" y2="53.262"/><linearGradient id="linear-gradient-11" gradientUnits="userSpaceOnUse" x1="32" x2="32" y1="10.9" y2="40.397"><stop offset="0" stop-color="#fffafc"/><stop offset="1" stop-color="#fee5e6"/></linearGradient><linearGradient id="linear-gradient-12" gradientUnits="userSpaceOnUse" x1="32" x2="32" y1="39.625" y2="24.583"><stop offset="0" stop-color="#fff" stop-opacity=".1"/><stop offset=".322" stop-color="#fce9e9" stop-opacity=".222"/><stop offset=".735" stop-color="#f7c9c9" stop-opacity=".4"/><stop offset=".997" stop-color="#f0adbd"/></linearGradient><linearGradient id="linear-gradient-13" gradientUnits="userSpaceOnUse" x1="-1.504" x2="12.596" y1="40.605" y2="54.405"><stop offset="0" stop-color="#f24b4f"/><stop offset=".209" stop-color="#ee474c"/><stop offset=".428" stop-color="#e13c43"/><stop offset=".652" stop-color="#cc2a34"/><stop offset=".879" stop-color="#af101f"/><stop offset="1" stop-color="#9c0012"/></linearGradient><linearGradient id="linear-gradient-14" x1="67.452" x2="52.602" xlink:href="#linear-gradient-13" y1="39.762" y2="53.262"/><linearGradient id="linear-gradient-15" x1="32" x2="32" xlink:href="#linear-gradient-12" y1="23.859" y2="44.601"/><path d="m32.38 32.88a.662.662 0 0 1 -.76 0c-1.83-1.25-9.62-6.81-9.62-10.5 0-4.18 3.06-5.38 5.48-5.38a7.484 7.484 0 0 1 4.52 2.09 7.484 7.484 0 0 1 4.52-2.09c2.42 0 5.48 1.2 5.48 5.38 0 3.69-7.79 9.25-9.62 10.5z" fill="url(#linear-gradient)"/><path d="m27.48 18a7.484 7.484 0 0 1 4.52 2.09 7.484 7.484 0 0 1 4.52-2.09c2.274 0 5.111 1.06 5.446 4.654.009-.091.034-.185.034-.274 0-4.18-3.06-5.38-5.48-5.38a7.484 7.484 0 0 0 -4.52 2.09 7.484 7.484 0 0 0 -4.52-2.09c-2.42 0-5.48 1.2-5.48 5.38 0 .089.025.183.034.274.335-3.594 3.172-4.654 5.446-4.654z" fill="url(#linear-gradient-2)"/><path d="m36.69 24.133a1.656 1.656 0 0 0 2.53.484 4.362 4.362 0 0 0 .713-.836 2.848 2.848 0 0 0 -.03-3.268 2.875 2.875 0 0 0 -1.54-.907c-1.089-.271-3.939.142-3.857 1.729.038.733 1.1 1.315 1.533 1.842a6.883 6.883 0 0 1 .651.956z" fill="url(#linear-gradient-3)"/><path d="m29.924 22c.307.649.916 1.014 1.228.75a1.2 1.2 0 0 0 .289-.358 2.086 2.086 0 0 0 -.2-1.917 2.7 2.7 0 0 0 -.783-.815c-.533-.359-1.86-.643-1.729.3.061.436.6.973.835 1.36a7.513 7.513 0 0 1 .36.68z" fill="url(#linear-gradient-4)"/><path d="m62.69 27.28-5.49 4.95-.2-.23v-10.38l4.67 4.19a3.722 3.722 0 0 1 1.02 1.47z" fill="url(#linear-gradient-5)"/><path d="m44.04 10h-24.08l8.55-7.66a5.215 5.215 0 0 1 6.98 0z" fill="url(#linear-gradient-6)"/><path d="m7 21.62v10.38l-.2.23-5.49-4.95a3.722 3.722 0 0 1 1.02-1.47z" fill="url(#linear-gradient-7)"/><path d="m6.8 32.23 14.61 13.18-19.15 16.5a3.962 3.962 0 0 1 -1.26-2.91v-30.21a3.678 3.678 0 0 1 .31-1.51z" fill="url(#linear-gradient-8)"/><path d="m42.59 45.41 19.15 16.5a4.013 4.013 0 0 1 -2.74 1.09h-54a4.013 4.013 0 0 1 -2.74-1.09l19.15-16.5 7.08-6.1a5.357 5.357 0 0 1 7.02 0z" fill="url(#linear-gradient-9)"/><path d="m63 28.79v30.21a3.962 3.962 0 0 1 -1.26 2.91l-19.15-16.5 14.61-13.18 5.49-4.95a3.678 3.678 0 0 1 .31 1.51z" fill="url(#linear-gradient-10)"/><path d="m57 32 .2.23-14.61 13.18-7.08-6.1a5.357 5.357 0 0 0 -7.02 0l-7.08 6.1-14.61-13.18.2-.23v-22h50zm-15-9.62c0-4.18-3.06-5.38-5.48-5.38a7.484 7.484 0 0 0 -4.52 2.09 7.484 7.484 0 0 0 -4.52-2.09c-2.42 0-5.48 1.2-5.48 5.38 0 3.69 7.79 9.25 9.62 10.5a.662.662 0 0 0 .76 0c1.83-1.25 9.62-6.81 9.62-10.5z" fill="url(#linear-gradient-11)"/><path d="m32.38 32.88a.662.662 0 0 1 -.76 0c-1.707-1.166-8.6-6.081-9.513-9.732a7.146 7.146 0 0 0 -.107 1.232c0 3.69 7.79 9.25 9.62 10.5a.662.662 0 0 0 .76 0c1.83-1.25 9.62-6.81 9.62-10.5a7.146 7.146 0 0 0 -.107-1.232c-.918 3.652-7.806 8.566-9.513 9.732z" fill="url(#linear-gradient-12)"/><path d="m1 49v10a3.962 3.962 0 0 0 1.26 2.91l19.15-16.5-2.09-1.885c-3.578 3.058-12.14 9.337-18.32 5.475z" fill="url(#linear-gradient-13)"/><path d="m44.68 43.525-2.09 1.885 19.15 16.5a3.962 3.962 0 0 0 1.26-2.91v-10c-6.18 3.862-14.742-2.417-18.32-5.475z" fill="url(#linear-gradient-14)"/><path d="m57 32v-5l-15.447 13.516-6.043-5.206a5.357 5.357 0 0 0 -7.02 0l-6.043 5.206-15.447-13.516v5l-.2.23 13.476 12.157 1.134 1.023 2.8-2.41 4.283-3.69a5.357 5.357 0 0 1 7.02 0l4.28 3.69 2.8 2.41 1.134-1.023 13.473-12.157z" fill="url(#linear-gradient-15)"/></svg>