<svg id="Layer_3" height="512" viewBox="0 0 64 64" width="512" xmlns="http://www.w3.org/2000/svg" data-name="Layer 3"><path d="m41 46v-4a21 21 0 0 1 10.065 2.569l2.4-2.005-1.315-2.819a33.543 33.543 0 0 1 -3.15-14.189 13.414 13.414 0 0 0 -3.929-9.485 24.143 24.143 0 0 0 -17.071-7.071 24.143 24.143 0 0 0 -17.071 7.071l-.929.929v7l22 22z" fill="#c52c37"/><path d="m53.463 42.564-1.315-2.819a33.543 33.543 0 0 1 -3.148-14.189 13.414 13.414 0 0 0 -3.929-9.485 24.139 24.139 0 0 0 -9.629-5.888 24 24 0 0 0 -2.905-.183 9.766 9.766 0 0 0 -1.446.117c-9.236 1.388-12.919 12.795-6.6 19.677 4.88 5.324 10.909 11.206 16.509 14.795v-2.589a21 21 0 0 1 10.065 2.569z" fill="#ed4241"/><path d="m41 46-2 9a46.375 46.375 0 0 1 -36.826-33.368l-.174-.632 8-4 1.005 1.919a58.306 58.306 0 0 0 29.995 27.081z" fill="#c1cfe8"/><path d="m42 42h-2v-2.675a37.923 37.923 0 0 0 -1.948-12.009l1.9-.632a39.893 39.893 0 0 1 2.048 12.641z" fill="#c52c37"/><circle cx="56" cy="48" fill="#c1cfe8" r="6"/><g fill="#d7e0ef"><path d="m10 17-7.793 3.9a46.383 46.383 0 0 0 29.7 28.624 5.772 5.772 0 0 0 7.364-4.256 58.3 58.3 0 0 1 -28.266-26.349z"/><path d="m56 42a5.968 5.968 0 0 0 -3.119.881 5.992 5.992 0 0 0 8.238 8.238 5.992 5.992 0 0 0 -5.119-9.119z"/></g></svg>